<svg xmlns="http://www.w3.org/2000/svg" width="1024" height="1024" viewBox="0 0 1024 1024">
<g>
<path d="M 0.00 0.00 L 1024.00 0.00 L 1024.00 1024.00 L 0.00 1024.00 ZM 230.00 584.00 L 230.00 668.00 L 331.25 668.00 L 333.79 668.00 C426.05,667.99 440.05,667.99 452.90,664.16 C455.32,663.43 457.70,662.58 460.55,661.56 C494.10,649.56 516.75,621.44 522.03,585.20 C523.82,572.94 522.80,549.61 520.04,539.50 C512.58,512.22 495.61,491.39 471.50,479.90 C451.09,470.17 438.49,468.83 371.15,469.24 C330.97,469.48 327.24,469.36 324.26,467.73 C320.17,465.50 318.28,462.62 317.44,457.35 C316.62,452.23 318.22,447.08 321.61,443.90 L 324.16 441.50 L 410.83 441.00 L 497.50 440.50 L 497.76 398.72 L 498.02 356.93 L 400.76 357.25 C304.08,357.57 303.45,357.58 295.21,359.78 C276.87,364.67 263.09,372.56 250.50,385.40 C239.34,396.78 231.42,410.90 226.80,427.67 C223.80,438.56 223.54,469.36 226.35,481.50 C235.67,521.79 266.49,548.62 309.50,553.89 C314.96,554.56 338.26,555.00 368.78,555.00 C423.96,555.00 424.42,555.05 427.43,560.87 C428.30,562.54 429.00,566.33 429.00,569.30 C429.00,575.99 426.02,580.95 420.97,582.69 C418.38,583.58 393.66,583.90 323.75,583.94 ZM 615.67 667.33 C616.03,667.70 636.73,668.00 661.67,668.00 L 707.00 668.00 L 707.00 560.75 L 706.99 453.50 L 684.25 430.13 L 661.50 406.76 L 638.26 430.13 L 615.02 453.50 L 615.01 560.08 C615.01,618.70 615.30,666.97 615.67,667.33 ZM 519.00 357.00 L 519.00 441.00 L 597.49 441.00 L 629.24 409.26 L 661.00 377.51 L 692.77 409.27 L 724.54 441.02 L 762.52 440.76 L 800.50 440.50 L 801.02 357.00 ZM 965.12 986.58 C966.36,989.56 967.65,992.00 968.00,992.00 C968.35,992.00 969.64,989.56 970.88,986.58 C973.62,979.96 980.69,973.05 987.28,970.53 C989.88,969.54 992.00,968.40 992.00,968.00 C992.00,967.60 989.88,966.46 987.28,965.47 C980.69,962.95 973.62,956.04 970.88,949.42 C969.64,946.44 968.35,944.00 968.00,944.00 C967.65,944.00 966.36,946.44 965.12,949.42 C962.38,956.04 955.31,962.95 948.72,965.47 C946.12,966.46 944.00,967.60 944.00,968.00 C944.00,968.40 946.12,969.54 948.72,970.53 C955.31,973.05 962.38,979.96 965.12,986.58 Z" fill="rgb(0,0,0)"/>
<path d="M 965.12 986.58 C962.38,979.96 955.31,973.05 948.72,970.53 C946.12,969.54 944.00,968.40 944.00,968.00 C944.00,967.60 946.12,966.46 948.72,965.47 C955.31,962.95 962.38,956.04 965.12,949.42 C966.36,946.44 967.65,944.00 968.00,944.00 C968.35,944.00 969.64,946.44 970.88,949.42 C973.62,956.04 980.69,962.95 987.28,965.47 C989.88,966.46 992.00,967.60 992.00,968.00 C992.00,968.40 989.88,969.54 987.28,970.53 C980.69,973.05 973.62,979.96 970.88,986.58 C969.64,989.56 968.35,992.00 968.00,992.00 C967.65,992.00 966.36,989.56 965.12,986.58 Z" fill="rgb(128,128,128)"/>
<path d="M 230.00 626.00 L 230.00 584.00 L 323.75 583.94 C393.66,583.90 418.38,583.58 420.97,582.69 C426.02,580.95 429.00,575.99 429.00,569.30 C429.00,566.33 428.30,562.54 427.43,560.87 C424.42,555.05 423.96,555.00 368.78,555.00 C338.26,555.00 314.96,554.56 309.50,553.89 C266.49,548.62 235.67,521.79 226.35,481.50 C223.54,469.36 223.80,438.56 226.80,427.67 C231.42,410.90 239.34,396.78 250.50,385.40 C263.09,372.56 276.87,364.67 295.21,359.78 C303.45,357.58 304.08,357.57 400.76,357.25 L 498.02 356.93 L 497.76 398.72 L 497.50 440.50 L 410.83 441.00 L 324.16 441.50 L 321.61 443.90 C318.22,447.08 316.62,452.23 317.44,457.35 C318.28,462.62 320.17,465.50 324.26,467.73 C327.24,469.36 330.97,469.48 371.15,469.24 C438.49,468.83 451.09,470.17 471.50,479.90 C495.61,491.39 512.58,512.22 520.04,539.50 C522.80,549.61 523.82,572.94 522.03,585.20 C516.75,621.44 494.10,649.56 460.55,661.56 C442.41,668.04 443.41,667.99 331.25,668.00 L 230.00 668.00 L 230.00 626.00 ZM 615.67 667.33 C615.30,666.97 615.01,618.70 615.01,560.08 L 615.02 453.50 L 638.26 430.13 L 661.50 406.76 L 684.25 430.13 L 706.99 453.50 L 707.00 560.75 L 707.00 668.00 L 661.67 668.00 C636.73,668.00 616.03,667.70 615.67,667.33 ZM 519.00 399.00 L 519.00 357.00 L 660.01 357.00 L 801.02 357.00 L 800.76 398.75 L 800.50 440.50 L 762.52 440.76 L 724.54 441.02 L 692.77 409.27 L 661.00 377.51 L 629.24 409.26 L 597.49 441.00 L 558.24 441.00 L 519.00 441.00 L 519.00 399.00 Z" fill="rgb(254,254,254)"/>
</g>
</svg>